/* XPM */
static const char *wall3[] = {
/* width height num_colors chars_per_pixel */
"    60     10        2            1",
/* colors */
". c #ff8f3f",
"# c #000000",
/* pixels */
"......#####.......#####.............#####.......#####.......",
"......#####.......#####.............#####.......#####.......",
"............................................................",
"............................................................",
"............................................................",
"............................................................",
"............................................................",
"............................................................",
"............................................................",
"............................................................"
};
