/* XPM */
static char * ship2_xpm[] = {
"42 18 5 1",
" 	c #000000000000",
".	c #FFFFFFFF0000",
"X	c #0000D9D90000",
"o	c #00000000FFFF",
"O	c #FFFF00000000",
"                 ........                 ",
"                .XXXXXXXX.                ",
"                .XXXXXXXX.                ",
"               .XXXXXXXXXX.               ",
"               .XXX    XXX.               ",
"               .XX  oo  XX.               ",
"              .XXX oooo XXX.              ",
"              .XX  oooo  XX.              ",
"              .XX oooooo XX.              ",
"  ..          .XX oooooo XX.          ..  ",
"  OO.         .XX oooooo XX.         .OO  ",
"  OOO.        .XX oooooo XX.        .OOO  ",
"  OOO.        .XXX oooo XXX.        .OOO  ",
"  OOO.       ..XXXX    XXXX.        .OOO  ",
"  OOO.       .XXXXXXXXXXXXXX.       .OOO  ",
"  OOOO.......XXXXXXXXXXXXXXXX.......OOOO  ",
"  OOOOXXXXXXXXXXXXXXXXXXXXXXXXXXXXXXOOOO  ",
"  OOOOXXXXXXXXXXXXXXXXXXXXXXXXXXXXXXOOOO  "};