/* XPM */
static char * ship_bullet2_xpm[] = {
"3 7 2 1",
" 	c #000000000000",
".	c #CFCFCFCFCFCF",
" . ",
" . ",
" . ",
"...",
"...",
"...",
"..."};
