/* XPM */
static char *spacer2[] = {
/* width height num_colors chars_per_pixel */
"    32    16        2            1",
/* colors */
". c #000000",
"# c #ffab43",
/* pixels */
"............########............",
"............########............",
"........################........",
"........################........",
"......####################......",
"......####################......",
"....########################....",
"....########################....",
"...###..####..####..####..###...",
"...###..####..####..####..###...",
"..############################..",
"..############################..",
"....######............######....",
"....######............######....",
"......##................##......",
"......##................##......"
};
