/* XPM */
static const char *spermb2[] = {
/* width height num_colors chars_per_pixel */
"     6    16        2            1",
/* colors */
". c #000000",
"# c #ffffff",
/* pixels */
"......",
"......",
"..##..",
"..##..",
"....##",
"....##",
"..##..",
"..##..",
"##....",
"##....",
"..##..",
"..##..",
"....##",
"....##",
"..##..",
"..##.."
};
