/* XPM */
static const char *vader1a2[] = {
/* width height num_colors chars_per_pixel */
"    20    18        2            1",
/* colors */
". c #000000",
"# c #33ff33",
/* pixels */
"....................",
"....................",
"........####........",
"........####........",
"......########......",
"......########......",
"....############....",
"....############....",
"..####..####..####..",
"..####..####..####..",
"..################..",
"..################..",
"....##..####..##....",
"....##..####..##....",
"..##............##..",
"..##............##..",
"....##........##....",
"....##........##...."
};
