/* XPM */
static const char *vader3a2[] = {
/* width height num_colors chars_per_pixel */
"    28    18        2            1",
/* colors */
". c #ff3333",
"# c #000000",
/* pixels */
"############################",
"############################",
"##########........##########",
"##########........##########",
"####....................####",
"####....................####",
"##........................##",
"##........................##",
"##......####....####......##",
"##......####....####......##",
"##........................##",
"##........................##",
"######......####......######",
"######......####......######",
"####....####....####....####",
"####....####....####....####",
"######....########....######",
"######....########....######"
};
