/* XPM */
static char *vader2a2[] = {
/* width height num_colors chars_per_pixel */
"    24    18        2            1",
/* colors */
". c #000000",
"# c #3333ff",
/* pixels */
"........................",
"........................",
"......##........##......",
"......##........##......",
"........##....##........",
"........##....##........",
"......############......",
"......############......",
"....####..####..####....",
"....####..####..####....",
"..####################..",
"..####################..",
"..##..############..##..",
"..##..############..##..",
"..##..##........##..##..",
"..##..##........##..##..",
"........##....##........",
"........##....##........"
};
