/* XPM */
static const char *vader2b2[] = {
/* width height num_colors chars_per_pixel */
"    24    18        2            1",
/* colors */
". c #000000",
"# c #3533ff",
/* pixels */
"........................",
"........................",
"......##........##......",
"......##........##......",
"..##....##....##....##..",
"..##....##....##....##..",
"..##..############..##..",
"..##..############..##..",
"..######..####..######..",
"..######..####..######..",
"....################....",
"....################....",
"......############......",
"......############......",
"......##........##......",
"......##........##......",
"....##............##....",
"....##............##...."
};
